<svg width="24" height="28" viewBox="0 0 24 28" fill="none" xmlns="http://www.w3.org/2000/svg">
<g opacity="0.4">
<path fill-rule="evenodd" clip-rule="evenodd" d="M16.4109 3.75171L16.4119 4.57722C19.1665 4.81497 20.9862 6.88207 20.9891 10.0521L21 19.3309C21.0039 22.787 19.0322 24.9136 15.8718 24.9191L8.15188 24.9301C5.01119 24.9345 3.01482 22.7573 3.01087 19.2913L3.00001 10.1214C2.99606 6.9305 4.75153 4.86891 7.50617 4.59043L7.50518 3.76492C7.5042 3.28061 7.83001 2.91628 8.26444 2.91628C8.69886 2.91518 9.02468 3.27841 9.02567 3.76271L9.02666 4.5332L14.8914 4.52439L14.8904 3.75391C14.8894 3.2696 15.2152 2.90638 15.6497 2.90528C16.0742 2.90418 16.4099 3.2674 16.4109 3.75171ZM4.52146 10.4615L19.4696 10.4395V10.0543C19.4272 7.68777 18.349 6.44619 16.4138 6.26128L16.4148 7.10881C16.4148 7.5821 16.0801 7.95744 15.6556 7.95744C15.2211 7.95854 14.8943 7.58431 14.8943 7.11101L14.8933 6.21945L9.02862 6.22826L9.0296 7.11871C9.0296 7.59311 8.70477 7.96735 8.27035 7.96735C7.83592 7.96845 7.50912 7.59531 7.50912 7.12091L7.50813 6.27338C5.58284 6.48582 4.51751 7.7318 4.52048 10.1192L4.52146 10.4615ZM15.2399 15.4641V15.4763C15.2498 15.9826 15.625 16.3667 16.0801 16.3557C16.5244 16.3436 16.8789 15.9242 16.869 15.4179C16.8483 14.9336 16.4918 14.5385 16.0485 14.5396C15.5943 14.5506 15.2389 14.9578 15.2399 15.4641ZM16.0554 20.4063C15.6013 20.3952 15.235 19.9781 15.234 19.4718C15.2241 18.9655 15.5884 18.5461 16.0426 18.534H16.0525C16.5165 18.534 16.8927 18.9511 16.8927 19.4685C16.8937 19.9858 16.5185 20.4052 16.0554 20.4063ZM11.1721 15.4818C11.1919 15.9881 11.568 16.3832 12.0222 16.3612C12.4665 16.3381 12.821 15.9198 12.8012 15.4135C12.7903 14.9182 12.425 14.533 11.9807 14.5341C11.5266 14.5561 11.1711 14.9754 11.1721 15.4818ZM12.0261 20.3567C11.572 20.3787 11.1968 19.9836 11.176 19.4773C11.176 18.9709 11.5305 18.5527 11.9847 18.5296C12.429 18.5285 12.7953 18.9137 12.8051 19.4079C12.8259 19.9153 12.4704 20.3336 12.0261 20.3567ZM7.1043 15.5203C7.12405 16.0266 7.50022 16.4228 7.95439 16.3997C8.39869 16.3777 8.75314 15.9584 8.73241 15.452C8.72253 14.9567 8.35722 14.5715 7.91194 14.5726C7.45777 14.5946 7.10332 15.014 7.1043 15.5203ZM7.95836 20.3622C7.50419 20.3853 7.12901 19.9891 7.10827 19.4828C7.10728 18.9765 7.46272 18.5571 7.91689 18.5351C8.36119 18.534 8.72749 18.9192 8.73736 19.4145C8.7581 19.9208 8.40365 20.3402 7.95836 20.3622Z" fill="#030229"/>
</g>
</svg>
