<svg width="24" height="27" viewBox="0 0 24 27" fill="none" xmlns="http://www.w3.org/2000/svg">
<g opacity="0.4">
<path fill-rule="evenodd" clip-rule="evenodd" d="M18.7071 9.81961C18.7071 11.2027 19.039 12.0179 19.7695 12.9573C20.3231 13.6494 20.5 14.5378 20.5 15.5017C20.5 16.4644 20.2128 17.3783 19.6373 18.1203C18.884 19.0098 17.8215 19.5777 16.7372 19.6764C15.1659 19.8239 13.5937 19.9482 12.0005 19.9482C10.4063 19.9482 8.83505 19.8739 7.26375 19.6764C6.17846 19.5777 5.11602 19.0098 4.36367 18.1203C3.78822 17.3783 3.5 16.4644 3.5 15.5017C3.5 14.5378 3.6779 13.6494 4.23049 12.9573C4.98384 12.0179 5.29392 11.2027 5.29392 9.81961V9.35045C5.29392 7.4982 5.71333 6.28703 6.577 5.10137C7.86106 3.37224 9.91935 2.33521 11.9558 2.33521H12.0452C14.1254 2.33521 16.2502 3.42215 17.5125 5.2256C18.3314 6.38685 18.7071 7.547 18.7071 9.35045V9.81961ZM9.07367 22.2245C9.07367 21.67 9.53582 21.416 9.96318 21.3073C10.4631 21.1908 13.5093 21.1908 14.0092 21.3073C14.4365 21.416 14.8987 21.67 14.8987 22.2245C14.8738 22.7525 14.5926 23.2205 14.204 23.5178C13.7001 23.9503 13.1087 24.2243 12.4906 24.323C12.1487 24.3718 11.8128 24.3729 11.4828 24.323C10.8636 24.2243 10.2723 23.9503 9.76937 23.5167C9.37978 23.2205 9.09852 22.7525 9.07367 22.2245Z" fill="#030229"/>
</g>
</svg>
