<svg width="24" height="27" viewBox="0 0 24 27" fill="none" xmlns="http://www.w3.org/2000/svg">
<g opacity="0.4">
<path fill-rule="evenodd" clip-rule="evenodd" d="M7.81 2.47559H16.191C19.28 2.47559 21 4.4358 21 7.79458V19.1704C21 22.5843 19.28 24.5004 16.191 24.5004H7.81C4.77 24.5004 3 22.5843 3 19.1704V7.79458C3 4.4358 4.77 2.47559 7.81 2.47559ZM8.07999 7.60737V7.59636H11.069C11.5 7.59636 11.85 7.98179 11.85 8.45423C11.85 8.93987 11.5 9.32531 11.069 9.32531H8.07999C7.64899 9.32531 7.29999 8.93987 7.29999 8.46634C7.29999 7.99281 7.64899 7.60737 8.07999 7.60737ZM8.07999 14.3029H15.92C16.35 14.3029 16.7 13.9175 16.7 13.444C16.7 12.9704 16.35 12.5839 15.92 12.5839H8.07999C7.64899 12.5839 7.29999 12.9704 7.29999 13.444C7.29999 13.9175 7.64899 14.3029 8.07999 14.3029ZM8.07999 19.3356H15.92C16.319 19.2915 16.62 18.916 16.62 18.4766C16.62 18.0251 16.319 17.6507 15.92 17.6066H8.07999C7.77999 17.5736 7.48999 17.7278 7.32999 18.0141C7.16999 18.2894 7.16999 18.6528 7.32999 18.9391C7.48999 19.2145 7.77999 19.3796 8.07999 19.3356Z" fill="#030229"/>
</g>
</svg>
