<svg width="24" height="27" viewBox="0 0 24 27" fill="none" xmlns="http://www.w3.org/2000/svg">
<g opacity="0.4">
<path fill-rule="evenodd" clip-rule="evenodd" d="M20.4023 15.5175C20.7599 15.7268 21.0359 16.0571 21.23 16.3875C21.6082 17.0703 21.5775 17.9072 21.2096 18.645L20.4942 19.9665C20.1161 20.6713 19.411 21.1118 18.6854 21.1118C18.3277 21.1118 17.9291 21.0017 17.6021 20.7815C17.3364 20.5942 17.0298 20.5282 16.7028 20.5282C15.691 20.5282 14.8428 21.4422 14.8121 22.5324C14.8121 23.7989 13.8719 24.79 12.6967 24.79H11.3068C10.1214 24.79 9.18116 23.7989 9.18116 22.5324C9.16072 21.4422 8.3125 20.5282 7.30076 20.5282C6.96351 20.5282 6.65693 20.5942 6.40144 20.7815C6.07441 21.0017 5.66563 21.1118 5.31816 21.1118C4.58235 21.1118 3.8772 20.6713 3.49908 19.9665L2.79393 18.645C2.4158 17.9292 2.39536 17.0703 2.77349 16.3875C2.937 16.0571 3.24359 15.7268 3.59106 15.5175C3.8772 15.3633 4.06116 15.1101 4.23489 14.8127C4.74587 13.8657 4.43928 12.6212 3.57062 12.0596C2.55888 11.4319 2.23185 10.0333 2.81437 8.9431L3.49908 7.64364C4.09181 6.55341 5.35904 6.16797 6.381 6.80669C7.2701 7.33529 8.42491 6.98289 8.94611 6.04684C9.10962 5.73849 9.2016 5.40812 9.18116 5.07774C9.16072 4.64826 9.27314 4.2408 9.46731 3.91043C9.84543 3.22766 10.5301 2.78716 11.2762 2.76514H12.7171C13.4734 2.76514 14.1581 3.22766 14.5362 3.91043C14.7202 4.2408 14.8428 4.64826 14.8121 5.07774C14.7917 5.40812 14.8837 5.73849 15.0472 6.04684C15.5684 6.98289 16.7232 7.33529 17.6225 6.80669C18.6343 6.16797 19.9117 6.55341 20.4942 7.64364L21.1789 8.9431C21.7717 10.0333 21.4447 11.4319 20.4227 12.0596C19.554 12.6212 19.2474 13.8657 19.7686 14.8127C19.9322 15.1101 20.1161 15.3633 20.4023 15.5175ZM9.10962 13.7886C9.10962 15.5175 10.4075 16.8941 12.012 16.8941C13.6165 16.8941 14.8837 15.5175 14.8837 13.7886C14.8837 12.0596 13.6165 10.6721 12.012 10.6721C10.4075 10.6721 9.10962 12.0596 9.10962 13.7886Z" fill="#030229"/>
</g>
</svg>
