<?xml version="1.0" standalone="no"?>
<!DOCTYPE svg PUBLIC "-//W3C//DTD SVG 20010904//EN"
 "http://www.w3.org/TR/2001/REC-SVG-20010904/DTD/svg10.dtd">
<svg version="1.0" xmlns="http://www.w3.org/2000/svg"
 width="512.000000pt" height="512.000000pt" viewBox="0 0 512.000000 512.000000"
 preserveAspectRatio="xMidYMid meet">

<g transform="translate(0.000000,512.000000) scale(0.100000,-0.100000)"
fill="#000000" stroke="none">
<path d="M1695 4114 c-36 -18 -72 -51 -88 -79 -9 -14 -13 -210 -17 -695 l-5
-675 -740 -5 -740 -5 -32 -23 c-17 -12 -41 -42 -52 -66 -21 -43 -21 -49 -19
-754 l3 -710 31 -39 c17 -21 46 -46 65 -55 32 -17 170 -18 2459 -18 2343 0
2426 1 2460 19 19 10 48 35 65 55 l30 38 3 1066 c2 722 0 1079 -8 1103 -14 51
-47 88 -94 110 -39 18 -82 19 -763 19 l-723 0 0 295 c0 321 -2 336 -56 387
-16 15 -42 32 -57 37 -19 8 -297 11 -860 11 -734 0 -836 -2 -862 -16z m1485
-1554 l0 -1220 -620 0 -620 0 0 1220 0 1220 620 0 620 0 0 -1220z m1585 -365
l0 -850 -617 -3 -618 -2 0 848 c0 467 3 852 7 855 3 4 281 6 617 5 l611 -3 0
-850z m-3175 -370 l0 -485 -617 2 -618 3 -3 483 -2 482 620 0 620 0 0 -485z"/>
</g>
</svg>
